<mxfile host="app.diagrams.net" agent="Mozilla/5.0 (Macintosh; Intel Mac OS X 10_15_7) AppleWebKit/537.36 (KHTML, like Gecko) Chrome/135.0.0.0 Safari/537.36" version="26.2.14">
  <diagram name="Page-1" id="k86rNNeifdIS8OVkVUe3">
    <mxGraphModel dx="2301" dy="663" grid="0" gridSize="10" guides="1" tooltips="1" connect="1" arrows="1" fold="1" page="0" pageScale="1" pageWidth="827" pageHeight="1169" math="0" shadow="0">
      <root>
        <mxCell id="0" />
        <mxCell id="1" parent="0" />
        <mxCell id="BnfR5xpUt8AOpjAlY5EH-1" value="AmaÃ§:&lt;div&gt;Bu projedeki asÄ±l amacÄ±mÄ±z dispatch ekibinin iÅŸ sÃ¼reÃ§lerini tamamen otomatize etmek ya da iyileÅŸtirmek deÄŸil.&lt;/div&gt;&lt;div&gt;Globalde halihazÄ±rda olan bir Ã§Ã¶zÃ¼m olan Odin&#39;i kendi sistemlerimize entegre etmek.&lt;/div&gt;&lt;div&gt;&lt;br&gt;&lt;/div&gt;&lt;div&gt;Problem:&lt;/div&gt;&lt;div&gt;Bu doÄŸrultuda o&lt;span style=&quot;background-color: transparent; color: light-dark(rgb(0, 0, 0), rgb(255, 255, 255));&quot;&gt;daklanmamÄ±z gereken problem&lt;/span&gt;&lt;span style=&quot;background-color: transparent; color: light-dark(rgb(0, 0, 0), rgb(255, 255, 255));&quot;&gt;&amp;nbsp;TÃ¼rkiye&#39;de adres bilgisi ile posta kodunun uyuÅŸmamasÄ±dÄ±r.&lt;/span&gt;&lt;/div&gt;&lt;div&gt;Peki bu sorunu nasÄ±l Ã§Ã¶zeceÄŸiz?&lt;/div&gt;&lt;div&gt;Problem veriyi sisteme girmek deÄŸil, verideki hatalarÄ± yakalamakta bunu Ã§Ã¶zeceÄŸiz.&lt;/div&gt;" style="text;html=1;align=left;verticalAlign=middle;resizable=0;points=[];autosize=1;strokeColor=none;fillColor=none;" parent="1" vertex="1">
          <mxGeometry x="-210" y="411" width="596" height="127" as="geometry" />
        </mxCell>
        <mxCell id="BnfR5xpUt8AOpjAlY5EH-5" value="Ã‡Ã¶zÃ¼m:&lt;div&gt;Dispatch ekibi her sabah 6-9 arasÄ±nda sistemden aldÄ±klarÄ± excel exportu Ã¼zerinden Ã§alÄ±ÅŸÄ±yor.&lt;/div&gt;&lt;div&gt;Bu excelde bir kontrol mekanizmasÄ± kurmamÄ±z lazÄ±m.&amp;nbsp;&lt;/div&gt;&lt;div&gt;Adres bilgisi ile posta kodu verisi uyuÅŸuyor mu diye validasyon kontrolÃ¼ yapÄ±lmalÄ±.&lt;/div&gt;&lt;div&gt;&lt;br&gt;&lt;/div&gt;&lt;div&gt;Ã–ncelikle elimizde tÃ¼m ÅŸehirlerin, il ve ilÃ§elerin posta kodunun olmasÄ± lazÄ±m (o kÄ±smÄ± hallettim ðŸ˜‡)&lt;/div&gt;&lt;div&gt;Daha sonrasÄ±nda adres verisini standart bir formata getirmemiz lazÄ±m. Burada kritik 2 nokta var:&lt;/div&gt;&lt;div&gt;Regex ve Benzerlik Metrikleri(Levenshtein Distance, Jaro-Winkler Similarity, Fuzzy Matching)&lt;/div&gt;" style="text;html=1;align=left;verticalAlign=middle;resizable=0;points=[];autosize=1;strokeColor=none;fillColor=none;" parent="1" vertex="1">
          <mxGeometry x="-210" y="529" width="530" height="130" as="geometry" />
        </mxCell>
        <mxCell id="BnfR5xpUt8AOpjAlY5EH-108" style="edgeStyle=orthogonalEdgeStyle;rounded=0;orthogonalLoop=1;jettySize=auto;html=1;" parent="1" source="BnfR5xpUt8AOpjAlY5EH-109" target="BnfR5xpUt8AOpjAlY5EH-112" edge="1">
          <mxGeometry relative="1" as="geometry" />
        </mxCell>
        <mxCell id="BnfR5xpUt8AOpjAlY5EH-109" value="Manifest Data" style="shape=cylinder3;whiteSpace=wrap;html=1;boundedLbl=1;backgroundOutline=1;size=15;fillColor=#f8cecc;strokeColor=#b85450;" parent="1" vertex="1">
          <mxGeometry x="20" y="1475" width="80" height="90" as="geometry" />
        </mxCell>
        <mxCell id="BnfR5xpUt8AOpjAlY5EH-110" style="edgeStyle=orthogonalEdgeStyle;rounded=0;orthogonalLoop=1;jettySize=auto;html=1;entryX=0;entryY=0.5;entryDx=0;entryDy=0;entryPerimeter=0;" parent="1" source="BnfR5xpUt8AOpjAlY5EH-147" target="BnfR5xpUt8AOpjAlY5EH-109" edge="1">
          <mxGeometry relative="1" as="geometry" />
        </mxCell>
        <mxCell id="BnfR5xpUt8AOpjAlY5EH-111" style="edgeStyle=orthogonalEdgeStyle;rounded=0;orthogonalLoop=1;jettySize=auto;html=1;entryX=0;entryY=0.5;entryDx=0;entryDy=0;" parent="1" source="BnfR5xpUt8AOpjAlY5EH-112" target="BnfR5xpUt8AOpjAlY5EH-115" edge="1">
          <mxGeometry relative="1" as="geometry" />
        </mxCell>
        <mxCell id="BnfR5xpUt8AOpjAlY5EH-112" value="" style="shape=image;html=1;verticalAlign=top;verticalLabelPosition=bottom;labelBackgroundColor=#ffffff;imageAspect=0;aspect=fixed;image=https://cdn3.iconfinder.com/data/icons/document-icons-2/30/647702-excel-128.png" parent="1" vertex="1">
          <mxGeometry x="180" y="1480" width="80" height="80" as="geometry" />
        </mxCell>
        <mxCell id="BnfR5xpUt8AOpjAlY5EH-113" value="&lt;font style=&quot;font-size: 8px;&quot;&gt;Excel Export&lt;/font&gt;" style="text;html=1;align=center;verticalAlign=middle;whiteSpace=wrap;rounded=0;" parent="1" vertex="1">
          <mxGeometry x="110" y="1490" width="60" height="30" as="geometry" />
        </mxCell>
        <mxCell id="BnfR5xpUt8AOpjAlY5EH-114" style="edgeStyle=orthogonalEdgeStyle;rounded=0;orthogonalLoop=1;jettySize=auto;html=1;entryX=0;entryY=0.5;entryDx=0;entryDy=0;" parent="1" source="BnfR5xpUt8AOpjAlY5EH-115" target="BnfR5xpUt8AOpjAlY5EH-141" edge="1">
          <mxGeometry relative="1" as="geometry">
            <mxPoint x="570" y="1520" as="targetPoint" />
          </mxGeometry>
        </mxCell>
        <mxCell id="BnfR5xpUt8AOpjAlY5EH-115" value="&lt;div&gt;&lt;br&gt;&lt;/div&gt;&lt;ol&gt;&lt;li&gt;&lt;span style=&quot;background-color: transparent; color: light-dark(rgb(0, 0, 0), rgb(255, 255, 255));&quot;&gt;Preserves Turkish characters&lt;/span&gt;&lt;/li&gt;&lt;li&gt;&lt;span style=&quot;background-color: transparent; color: light-dark(rgb(0, 0, 0), rgb(255, 255, 255));&quot;&gt;Converts everything to uppercase&lt;/span&gt;&lt;/li&gt;&lt;li&gt;&lt;span style=&quot;background-color: transparent; color: light-dark(rgb(0, 0, 0), rgb(255, 255, 255));&quot;&gt;Keeps abbreviations&lt;/span&gt;&lt;/li&gt;&lt;li&gt;&lt;span style=&quot;background-color: transparent; color: light-dark(rgb(0, 0, 0), rgb(255, 255, 255));&quot;&gt;Removes punctuation&lt;/span&gt;&lt;/li&gt;&lt;/ol&gt;" style="rounded=0;whiteSpace=wrap;html=1;align=left;verticalAlign=middle;" parent="1" vertex="1">
          <mxGeometry x="340" y="1460" width="160" height="120" as="geometry" />
        </mxCell>
        <mxCell id="BnfR5xpUt8AOpjAlY5EH-116" value="&lt;b&gt;Data Normalization&lt;/b&gt;" style="text;html=1;align=center;verticalAlign=middle;whiteSpace=wrap;rounded=0;" parent="1" vertex="1">
          <mxGeometry x="340" y="1460" width="160" height="30" as="geometry" />
        </mxCell>
        <mxCell id="BnfR5xpUt8AOpjAlY5EH-117" value="&lt;font style=&quot;font-size: 8px;&quot;&gt;Write Data&lt;/font&gt;" style="text;html=1;align=center;verticalAlign=middle;whiteSpace=wrap;rounded=0;" parent="1" vertex="1">
          <mxGeometry x="-50" y="1490" width="60" height="30" as="geometry" />
        </mxCell>
        <mxCell id="BnfR5xpUt8AOpjAlY5EH-118" value="&lt;font style=&quot;font-size: 8px;&quot;&gt;Transform Data&lt;/font&gt;" style="text;html=1;align=center;verticalAlign=middle;whiteSpace=wrap;rounded=0;" parent="1" vertex="1">
          <mxGeometry x="270" y="1490" width="60" height="30" as="geometry" />
        </mxCell>
        <mxCell id="BnfR5xpUt8AOpjAlY5EH-119" style="edgeStyle=orthogonalEdgeStyle;rounded=0;orthogonalLoop=1;jettySize=auto;html=1;" parent="1" source="BnfR5xpUt8AOpjAlY5EH-120" target="BnfR5xpUt8AOpjAlY5EH-143" edge="1">
          <mxGeometry relative="1" as="geometry" />
        </mxCell>
        <mxCell id="BnfR5xpUt8AOpjAlY5EH-120" value="Fuzzy&lt;div&gt;Matching&lt;/div&gt;" style="ellipse;whiteSpace=wrap;html=1;" parent="1" vertex="1">
          <mxGeometry x="580" y="1610" width="120" height="60" as="geometry" />
        </mxCell>
        <mxCell id="BnfR5xpUt8AOpjAlY5EH-121" value="&lt;font style=&quot;color: rgb(0, 153, 0);&quot;&gt;ERENKÃ–Y MAH %90&lt;/font&gt;&lt;div&gt;ERLÄ°KÃ–Y MAH %65&lt;/div&gt;&lt;div&gt;EDÄ°RNEKÃ–Y MAH %55&lt;/div&gt;" style="text;html=1;align=left;verticalAlign=middle;resizable=0;points=[];autosize=1;strokeColor=none;fillColor=none;" parent="1" vertex="1">
          <mxGeometry x="720" y="1610" width="150" height="60" as="geometry" />
        </mxCell>
        <mxCell id="BnfR5xpUt8AOpjAlY5EH-122" style="edgeStyle=orthogonalEdgeStyle;rounded=0;orthogonalLoop=1;jettySize=auto;html=1;entryX=1;entryY=0.5;entryDx=0;entryDy=0;" parent="1" source="BnfR5xpUt8AOpjAlY5EH-123" target="BnfR5xpUt8AOpjAlY5EH-162" edge="1">
          <mxGeometry relative="1" as="geometry" />
        </mxCell>
        <mxCell id="BnfR5xpUt8AOpjAlY5EH-123" value="Turkiye Postal Code DB" style="shape=cylinder3;whiteSpace=wrap;html=1;boundedLbl=1;backgroundOutline=1;size=15;fillColor=#f8cecc;strokeColor=#b85450;" parent="1" vertex="1">
          <mxGeometry x="380" y="1715" width="80" height="90" as="geometry" />
        </mxCell>
        <mxCell id="BnfR5xpUt8AOpjAlY5EH-124" value="&lt;font style=&quot;font-size: 8px;&quot;&gt;Search &lt;b&gt;&quot;Mahalle&quot;&lt;/b&gt; Column&lt;/font&gt;" style="text;html=1;align=center;verticalAlign=middle;whiteSpace=wrap;rounded=0;" parent="1" vertex="1">
          <mxGeometry x="472" y="1737" width="100" height="30" as="geometry" />
        </mxCell>
        <mxCell id="BnfR5xpUt8AOpjAlY5EH-125" value="" style="group;labelBackgroundColor=#FF6666;labelBorderColor=none;fillColor=#FF6666;" parent="1" vertex="1" connectable="0">
          <mxGeometry y="1570" width="120" height="30" as="geometry" />
        </mxCell>
        <mxCell id="BnfR5xpUt8AOpjAlY5EH-126" value="ErenkÃ¶y Mahallesi" style="text;html=1;align=center;verticalAlign=middle;resizable=0;points=[];autosize=1;strokeColor=none;fillColor=none;" parent="BnfR5xpUt8AOpjAlY5EH-125" vertex="1">
          <mxGeometry x="-7.5" width="120" height="30" as="geometry" />
        </mxCell>
        <mxCell id="BnfR5xpUt8AOpjAlY5EH-128" value="" style="group;fillColor=#FF6666;" parent="1" vertex="1" connectable="0">
          <mxGeometry x="160" y="1570" width="120" height="30" as="geometry" />
        </mxCell>
        <mxCell id="BnfR5xpUt8AOpjAlY5EH-129" value="ErenkÃ¶y Mahallesi" style="text;html=1;align=center;verticalAlign=middle;resizable=0;points=[];autosize=1;strokeColor=none;fillColor=none;" parent="BnfR5xpUt8AOpjAlY5EH-128" vertex="1">
          <mxGeometry x="-7.5" width="120" height="30" as="geometry" />
        </mxCell>
        <mxCell id="BnfR5xpUt8AOpjAlY5EH-131" value="" style="group;fillColor=#FF6666;" parent="1" vertex="1" connectable="0">
          <mxGeometry x="337.5" y="1610" width="165" height="30" as="geometry" />
        </mxCell>
        <mxCell id="BnfR5xpUt8AOpjAlY5EH-132" value="ERENKÃ–Y MAHALLESÄ°" style="text;html=1;align=center;verticalAlign=middle;resizable=0;points=[];autosize=1;strokeColor=none;fillColor=none;" parent="BnfR5xpUt8AOpjAlY5EH-131" vertex="1">
          <mxGeometry x="7.5" width="150" height="30" as="geometry" />
        </mxCell>
        <mxCell id="BnfR5xpUt8AOpjAlY5EH-134" value="" style="group;labelBackgroundColor=#FF6666;labelBorderColor=none;fillColor=#FF6666;" parent="1" vertex="1" connectable="0">
          <mxGeometry x="-180" y="1610" width="120" height="30" as="geometry" />
        </mxCell>
        <mxCell id="BnfR5xpUt8AOpjAlY5EH-135" value="&lt;span&gt;ErenkÃ¶y Mahallesi&lt;/span&gt;" style="text;html=1;align=center;verticalAlign=middle;resizable=0;points=[];autosize=1;strokeColor=none;fillColor=none;" parent="BnfR5xpUt8AOpjAlY5EH-134" vertex="1">
          <mxGeometry x="-7.5" width="120" height="30" as="geometry" />
        </mxCell>
        <mxCell id="BnfR5xpUt8AOpjAlY5EH-137" value="" style="group;fillColor=#FF6666;" parent="1" vertex="1" connectable="0">
          <mxGeometry x="720" y="1504" width="165" height="31" as="geometry" />
        </mxCell>
        <mxCell id="BnfR5xpUt8AOpjAlY5EH-138" value="ERNEKOY MAH." style="text;html=1;align=center;verticalAlign=middle;resizable=0;points=[];autosize=1;strokeColor=none;fillColor=none;" parent="BnfR5xpUt8AOpjAlY5EH-137" vertex="1">
          <mxGeometry width="120" height="30" as="geometry" />
        </mxCell>
        <mxCell id="BnfR5xpUt8AOpjAlY5EH-139" value="34738" style="text;html=1;align=center;verticalAlign=middle;resizable=0;points=[];autosize=1;strokeColor=none;fillColor=none;" parent="BnfR5xpUt8AOpjAlY5EH-137" vertex="1">
          <mxGeometry x="105" width="60" height="30" as="geometry" />
        </mxCell>
        <mxCell id="BnfR5xpUt8AOpjAlY5EH-176" value="" style="group;fillColor=#FF6666;" parent="BnfR5xpUt8AOpjAlY5EH-137" vertex="1" connectable="0">
          <mxGeometry y="1" width="165" height="30" as="geometry" />
        </mxCell>
        <mxCell id="BnfR5xpUt8AOpjAlY5EH-177" value="ERENKÃ–Y MAHALLESÄ°" style="text;html=1;align=center;verticalAlign=middle;resizable=0;points=[];autosize=1;strokeColor=none;fillColor=none;" parent="BnfR5xpUt8AOpjAlY5EH-176" vertex="1">
          <mxGeometry x="7.5" width="150" height="30" as="geometry" />
        </mxCell>
        <mxCell id="BnfR5xpUt8AOpjAlY5EH-140" style="edgeStyle=orthogonalEdgeStyle;rounded=0;orthogonalLoop=1;jettySize=auto;html=1;entryX=0.5;entryY=0;entryDx=0;entryDy=0;" parent="1" source="BnfR5xpUt8AOpjAlY5EH-141" target="BnfR5xpUt8AOpjAlY5EH-120" edge="1">
          <mxGeometry relative="1" as="geometry" />
        </mxCell>
        <mxCell id="BnfR5xpUt8AOpjAlY5EH-141" value="Input Address" style="rounded=0;whiteSpace=wrap;html=1;" parent="1" vertex="1">
          <mxGeometry x="580" y="1480" width="120" height="80" as="geometry" />
        </mxCell>
        <mxCell id="BnfR5xpUt8AOpjAlY5EH-142" style="edgeStyle=orthogonalEdgeStyle;rounded=0;orthogonalLoop=1;jettySize=auto;html=1;" parent="1" source="BnfR5xpUt8AOpjAlY5EH-143" target="BnfR5xpUt8AOpjAlY5EH-123" edge="1">
          <mxGeometry relative="1" as="geometry" />
        </mxCell>
        <mxCell id="BnfR5xpUt8AOpjAlY5EH-143" value="Output Address" style="rounded=0;whiteSpace=wrap;html=1;gradientColor=none;" parent="1" vertex="1">
          <mxGeometry x="580" y="1720" width="120" height="80" as="geometry" />
        </mxCell>
        <mxCell id="BnfR5xpUt8AOpjAlY5EH-144" value="" style="group;fillColor=#66FF66;container=0;" parent="1" vertex="1" connectable="0">
          <mxGeometry x="720" y="1745" width="165" height="30" as="geometry" />
        </mxCell>
        <mxCell id="BnfR5xpUt8AOpjAlY5EH-145" value="" style="group" parent="1" vertex="1" connectable="0">
          <mxGeometry x="-180" y="1440" width="120" height="160" as="geometry" />
        </mxCell>
        <mxCell id="BnfR5xpUt8AOpjAlY5EH-146" value="" style="group;fillColor=#ffcd28;gradientColor=#ffa500;strokeColor=#d79b00;container=0;" parent="BnfR5xpUt8AOpjAlY5EH-145" vertex="1" connectable="0">
          <mxGeometry width="120" height="160" as="geometry" />
        </mxCell>
        <mxCell id="BnfR5xpUt8AOpjAlY5EH-147" value="" style="rounded=0;whiteSpace=wrap;html=1;rotation=90;fillColor=#fff2cc;strokeColor=#d6b656;gradientColor=#ffd966;gradientDirection=east;" parent="BnfR5xpUt8AOpjAlY5EH-145" vertex="1">
          <mxGeometry x="-20" y="20" width="160" height="120" as="geometry" />
        </mxCell>
        <mxCell id="BnfR5xpUt8AOpjAlY5EH-148" value="" style="rounded=0;whiteSpace=wrap;html=1;" parent="BnfR5xpUt8AOpjAlY5EH-145" vertex="1">
          <mxGeometry x="10" y="30" width="30" height="10" as="geometry" />
        </mxCell>
        <mxCell id="BnfR5xpUt8AOpjAlY5EH-149" value="" style="rounded=0;whiteSpace=wrap;html=1;" parent="BnfR5xpUt8AOpjAlY5EH-145" vertex="1">
          <mxGeometry x="10" y="50" width="30" height="10" as="geometry" />
        </mxCell>
        <mxCell id="BnfR5xpUt8AOpjAlY5EH-150" value="" style="rounded=0;whiteSpace=wrap;html=1;" parent="BnfR5xpUt8AOpjAlY5EH-145" vertex="1">
          <mxGeometry x="10" y="70" width="30" height="10" as="geometry" />
        </mxCell>
        <mxCell id="BnfR5xpUt8AOpjAlY5EH-151" value="" style="rounded=0;whiteSpace=wrap;html=1;" parent="BnfR5xpUt8AOpjAlY5EH-145" vertex="1">
          <mxGeometry x="10" y="90" width="30" height="10" as="geometry" />
        </mxCell>
        <mxCell id="BnfR5xpUt8AOpjAlY5EH-152" value="" style="rounded=0;whiteSpace=wrap;html=1;" parent="BnfR5xpUt8AOpjAlY5EH-145" vertex="1">
          <mxGeometry x="70" y="30" width="30" height="10" as="geometry" />
        </mxCell>
        <mxCell id="BnfR5xpUt8AOpjAlY5EH-153" value="" style="rounded=0;whiteSpace=wrap;html=1;" parent="BnfR5xpUt8AOpjAlY5EH-145" vertex="1">
          <mxGeometry x="70" y="50" width="30" height="10" as="geometry" />
        </mxCell>
        <mxCell id="BnfR5xpUt8AOpjAlY5EH-154" value="" style="rounded=0;whiteSpace=wrap;html=1;" parent="BnfR5xpUt8AOpjAlY5EH-145" vertex="1">
          <mxGeometry x="70" y="70" width="30" height="10" as="geometry" />
        </mxCell>
        <mxCell id="BnfR5xpUt8AOpjAlY5EH-155" value="" style="rounded=0;whiteSpace=wrap;html=1;" parent="BnfR5xpUt8AOpjAlY5EH-145" vertex="1">
          <mxGeometry x="70" y="90" width="30" height="10" as="geometry" />
        </mxCell>
        <mxCell id="BnfR5xpUt8AOpjAlY5EH-156" value="" style="endArrow=none;html=1;rounded=0;entryX=0.125;entryY=0.5;entryDx=0;entryDy=0;entryPerimeter=0;" parent="BnfR5xpUt8AOpjAlY5EH-145" edge="1">
          <mxGeometry width="50" height="50" relative="1" as="geometry">
            <mxPoint x="55.81999999999999" y="140" as="sourcePoint" />
            <mxPoint x="55.81999999999999" y="20" as="targetPoint" />
          </mxGeometry>
        </mxCell>
        <UserObject label="mydhl.express.dhl" link="mydhl.express.dhl" id="BnfR5xpUt8AOpjAlY5EH-157">
          <mxCell style="text;whiteSpace=wrap;fontSize=10;" parent="BnfR5xpUt8AOpjAlY5EH-145" vertex="1">
            <mxGeometry x="15" width="90" height="20" as="geometry" />
          </mxCell>
        </UserObject>
        <mxCell id="BnfR5xpUt8AOpjAlY5EH-158" value="ERENKÃ–Y MAH" style="text;html=1;align=center;verticalAlign=middle;resizable=0;points=[];autosize=1;strokeColor=none;fillColor=#66FF66;" parent="1" vertex="1">
          <mxGeometry x="467" y="1767" width="110" height="30" as="geometry" />
        </mxCell>
        <mxCell id="BnfR5xpUt8AOpjAlY5EH-159" value="" style="group" parent="1" vertex="1" connectable="0">
          <mxGeometry x="725" y="1745" width="160" height="35" as="geometry" />
        </mxCell>
        <mxCell id="BnfR5xpUt8AOpjAlY5EH-161" value="ERENKÃ–Y MAH" style="text;html=1;align=center;verticalAlign=middle;resizable=0;points=[];autosize=1;strokeColor=none;fillColor=none;" parent="BnfR5xpUt8AOpjAlY5EH-159" vertex="1">
          <mxGeometry width="110" height="30" as="geometry" />
        </mxCell>
        <mxCell id="BnfR5xpUt8AOpjAlY5EH-162" value="Output Postal Code" style="rounded=0;whiteSpace=wrap;html=1;gradientColor=none;" parent="1" vertex="1">
          <mxGeometry x="180" y="1720" width="120" height="80" as="geometry" />
        </mxCell>
        <mxCell id="BnfR5xpUt8AOpjAlY5EH-163" value="&lt;span style=&quot;font-size: 8px;&quot;&gt;Return &lt;b&gt;&quot;PK&quot;&lt;/b&gt;&lt;/span&gt;" style="text;html=1;align=center;verticalAlign=middle;whiteSpace=wrap;rounded=0;" parent="1" vertex="1">
          <mxGeometry x="294" y="1737" width="100" height="30" as="geometry" />
        </mxCell>
        <mxCell id="BnfR5xpUt8AOpjAlY5EH-164" style="edgeStyle=orthogonalEdgeStyle;rounded=0;orthogonalLoop=1;jettySize=auto;html=1;entryX=0;entryY=0.5;entryDx=0;entryDy=0;" parent="1" source="BnfR5xpUt8AOpjAlY5EH-165" target="BnfR5xpUt8AOpjAlY5EH-175" edge="1">
          <mxGeometry relative="1" as="geometry">
            <mxPoint x="457" y="1880" as="targetPoint" />
            <Array as="points">
              <mxPoint x="240" y="1880" />
            </Array>
          </mxGeometry>
        </mxCell>
        <mxCell id="BnfR5xpUt8AOpjAlY5EH-165" value="34738" style="text;html=1;align=center;verticalAlign=middle;resizable=0;points=[];autosize=1;strokeColor=none;fillColor=#66FF66;" parent="1" vertex="1">
          <mxGeometry x="210" y="1805" width="60" height="30" as="geometry" />
        </mxCell>
        <mxCell id="BnfR5xpUt8AOpjAlY5EH-166" value="&lt;font style=&quot;font-size: 16px;&quot;&gt;&lt;b style=&quot;&quot;&gt;Scenario 2:&lt;/b&gt; Address Correct / Postal Code Missing&amp;nbsp;&lt;/font&gt;" style="text;html=1;align=left;verticalAlign=middle;resizable=0;points=[];autosize=1;strokeColor=none;fillColor=none;" parent="1" vertex="1">
          <mxGeometry x="-180" y="1400" width="390" height="30" as="geometry" />
        </mxCell>
        <mxCell id="BnfR5xpUt8AOpjAlY5EH-167" style="edgeStyle=orthogonalEdgeStyle;rounded=0;orthogonalLoop=1;jettySize=auto;html=1;entryX=0.5;entryY=1.05;entryDx=0;entryDy=0;entryPerimeter=0;" parent="1" edge="1">
          <mxGeometry relative="1" as="geometry">
            <mxPoint x="580" y="1880" as="sourcePoint" />
            <mxPoint x="855" y="1782" as="targetPoint" />
          </mxGeometry>
        </mxCell>
        <mxCell id="BnfR5xpUt8AOpjAlY5EH-168" style="edgeStyle=orthogonalEdgeStyle;rounded=0;orthogonalLoop=1;jettySize=auto;html=1;entryX=0.727;entryY=-0.05;entryDx=0;entryDy=0;entryPerimeter=0;" parent="1" source="BnfR5xpUt8AOpjAlY5EH-169" target="BnfR5xpUt8AOpjAlY5EH-174" edge="1">
          <mxGeometry relative="1" as="geometry">
            <mxPoint x="1000" y="1840" as="targetPoint" />
          </mxGeometry>
        </mxCell>
        <mxCell id="BnfR5xpUt8AOpjAlY5EH-169" value="Validate" style="ellipse;whiteSpace=wrap;html=1;" parent="1" vertex="1">
          <mxGeometry x="940" y="1730" width="120" height="60" as="geometry" />
        </mxCell>
        <mxCell id="BnfR5xpUt8AOpjAlY5EH-170" style="edgeStyle=orthogonalEdgeStyle;rounded=0;orthogonalLoop=1;jettySize=auto;html=1;entryX=0;entryY=0.5;entryDx=0;entryDy=0;" parent="1" target="BnfR5xpUt8AOpjAlY5EH-169" edge="1">
          <mxGeometry relative="1" as="geometry">
            <mxPoint x="880" y="1760" as="sourcePoint" />
          </mxGeometry>
        </mxCell>
        <mxCell id="BnfR5xpUt8AOpjAlY5EH-171" value="" style="group;fillColor=#66FF66;container=0;" parent="1" vertex="1" connectable="0">
          <mxGeometry x="920" y="1850" width="160" height="30" as="geometry" />
        </mxCell>
        <mxCell id="BnfR5xpUt8AOpjAlY5EH-172" value="" style="group" parent="1" vertex="1" connectable="0">
          <mxGeometry x="920" y="1850" width="160" height="30" as="geometry" />
        </mxCell>
        <mxCell id="BnfR5xpUt8AOpjAlY5EH-173" value="34738" style="text;html=1;align=center;verticalAlign=middle;resizable=0;points=[];autosize=1;strokeColor=none;fillColor=#66FF66;" parent="BnfR5xpUt8AOpjAlY5EH-172" vertex="1">
          <mxGeometry x="100" width="60" height="30" as="geometry" />
        </mxCell>
        <mxCell id="BnfR5xpUt8AOpjAlY5EH-174" value="ERENKÃ–Y MAH" style="text;html=1;align=center;verticalAlign=middle;resizable=0;points=[];autosize=1;strokeColor=none;fillColor=none;" parent="BnfR5xpUt8AOpjAlY5EH-172" vertex="1">
          <mxGeometry width="110" height="30" as="geometry" />
        </mxCell>
        <mxCell id="BnfR5xpUt8AOpjAlY5EH-175" value="Check Postal Code" style="ellipse;whiteSpace=wrap;html=1;" parent="1" vertex="1">
          <mxGeometry x="460" y="1850" width="120" height="60" as="geometry" />
        </mxCell>
        <mxCell id="BnfR5xpUt8AOpjAlY5EH-178" value="34738" style="ellipse;shape=cloud;whiteSpace=wrap;html=1;" parent="1" vertex="1">
          <mxGeometry x="830" y="1745" width="50" height="23" as="geometry" />
        </mxCell>
        <mxCell id="BnfR5xpUt8AOpjAlY5EH-179" style="edgeStyle=orthogonalEdgeStyle;rounded=0;orthogonalLoop=1;jettySize=auto;html=1;" parent="1" source="BnfR5xpUt8AOpjAlY5EH-180" target="BnfR5xpUt8AOpjAlY5EH-183" edge="1">
          <mxGeometry relative="1" as="geometry" />
        </mxCell>
        <mxCell id="BnfR5xpUt8AOpjAlY5EH-180" value="Manifest Data" style="shape=cylinder3;whiteSpace=wrap;html=1;boundedLbl=1;backgroundOutline=1;size=15;fillColor=#f8cecc;strokeColor=#b85450;" parent="1" vertex="1">
          <mxGeometry y="2075" width="80" height="90" as="geometry" />
        </mxCell>
        <mxCell id="BnfR5xpUt8AOpjAlY5EH-181" style="edgeStyle=orthogonalEdgeStyle;rounded=0;orthogonalLoop=1;jettySize=auto;html=1;entryX=0;entryY=0.5;entryDx=0;entryDy=0;entryPerimeter=0;" parent="1" source="BnfR5xpUt8AOpjAlY5EH-216" target="BnfR5xpUt8AOpjAlY5EH-180" edge="1">
          <mxGeometry relative="1" as="geometry" />
        </mxCell>
        <mxCell id="BnfR5xpUt8AOpjAlY5EH-182" style="edgeStyle=orthogonalEdgeStyle;rounded=0;orthogonalLoop=1;jettySize=auto;html=1;entryX=0;entryY=0.5;entryDx=0;entryDy=0;" parent="1" source="BnfR5xpUt8AOpjAlY5EH-183" target="BnfR5xpUt8AOpjAlY5EH-186" edge="1">
          <mxGeometry relative="1" as="geometry" />
        </mxCell>
        <mxCell id="BnfR5xpUt8AOpjAlY5EH-183" value="" style="shape=image;html=1;verticalAlign=top;verticalLabelPosition=bottom;labelBackgroundColor=#ffffff;imageAspect=0;aspect=fixed;image=https://cdn3.iconfinder.com/data/icons/document-icons-2/30/647702-excel-128.png" parent="1" vertex="1">
          <mxGeometry x="160" y="2080" width="80" height="80" as="geometry" />
        </mxCell>
        <mxCell id="BnfR5xpUt8AOpjAlY5EH-184" value="&lt;font style=&quot;font-size: 8px;&quot;&gt;Excel Export&lt;/font&gt;" style="text;html=1;align=center;verticalAlign=middle;whiteSpace=wrap;rounded=0;" parent="1" vertex="1">
          <mxGeometry x="90" y="2090" width="60" height="30" as="geometry" />
        </mxCell>
        <mxCell id="BnfR5xpUt8AOpjAlY5EH-185" style="edgeStyle=orthogonalEdgeStyle;rounded=0;orthogonalLoop=1;jettySize=auto;html=1;entryX=0;entryY=0.5;entryDx=0;entryDy=0;" parent="1" source="BnfR5xpUt8AOpjAlY5EH-186" target="BnfR5xpUt8AOpjAlY5EH-210" edge="1">
          <mxGeometry relative="1" as="geometry">
            <mxPoint x="550" y="2120" as="targetPoint" />
          </mxGeometry>
        </mxCell>
        <mxCell id="BnfR5xpUt8AOpjAlY5EH-186" value="&lt;div&gt;&lt;br&gt;&lt;/div&gt;&lt;ol&gt;&lt;li&gt;&lt;span style=&quot;background-color: transparent; color: light-dark(rgb(0, 0, 0), rgb(255, 255, 255));&quot;&gt;Preserves Turkish characters&lt;/span&gt;&lt;/li&gt;&lt;li&gt;&lt;span style=&quot;background-color: transparent; color: light-dark(rgb(0, 0, 0), rgb(255, 255, 255));&quot;&gt;Converts everything to uppercase&lt;/span&gt;&lt;/li&gt;&lt;li&gt;&lt;span style=&quot;background-color: transparent; color: light-dark(rgb(0, 0, 0), rgb(255, 255, 255));&quot;&gt;Keeps abbreviations&lt;/span&gt;&lt;/li&gt;&lt;li&gt;&lt;span style=&quot;background-color: transparent; color: light-dark(rgb(0, 0, 0), rgb(255, 255, 255));&quot;&gt;Removes punctuation&lt;/span&gt;&lt;/li&gt;&lt;/ol&gt;" style="rounded=0;whiteSpace=wrap;html=1;align=left;verticalAlign=middle;" parent="1" vertex="1">
          <mxGeometry x="320" y="2060" width="160" height="120" as="geometry" />
        </mxCell>
        <mxCell id="BnfR5xpUt8AOpjAlY5EH-187" value="&lt;b&gt;Data Normalization&lt;/b&gt;" style="text;html=1;align=center;verticalAlign=middle;whiteSpace=wrap;rounded=0;" parent="1" vertex="1">
          <mxGeometry x="320" y="2060" width="160" height="30" as="geometry" />
        </mxCell>
        <mxCell id="BnfR5xpUt8AOpjAlY5EH-188" value="&lt;font style=&quot;font-size: 8px;&quot;&gt;Write Data&lt;/font&gt;" style="text;html=1;align=center;verticalAlign=middle;whiteSpace=wrap;rounded=0;" parent="1" vertex="1">
          <mxGeometry x="-70" y="2090" width="60" height="30" as="geometry" />
        </mxCell>
        <mxCell id="BnfR5xpUt8AOpjAlY5EH-189" value="&lt;font style=&quot;font-size: 8px;&quot;&gt;Transform Data&lt;/font&gt;" style="text;html=1;align=center;verticalAlign=middle;whiteSpace=wrap;rounded=0;" parent="1" vertex="1">
          <mxGeometry x="250" y="2090" width="60" height="30" as="geometry" />
        </mxCell>
        <mxCell id="BnfR5xpUt8AOpjAlY5EH-190" style="edgeStyle=orthogonalEdgeStyle;rounded=0;orthogonalLoop=1;jettySize=auto;html=1;" parent="1" source="BnfR5xpUt8AOpjAlY5EH-191" target="BnfR5xpUt8AOpjAlY5EH-212" edge="1">
          <mxGeometry relative="1" as="geometry" />
        </mxCell>
        <mxCell id="BnfR5xpUt8AOpjAlY5EH-191" value="Fuzzy&lt;div&gt;Matching&lt;/div&gt;" style="ellipse;whiteSpace=wrap;html=1;" parent="1" vertex="1">
          <mxGeometry x="560" y="2210" width="120" height="60" as="geometry" />
        </mxCell>
        <mxCell id="BnfR5xpUt8AOpjAlY5EH-192" value="&lt;font style=&quot;color: rgb(0, 153, 0);&quot;&gt;ERENKÃ–Y MAH %90&lt;/font&gt;&lt;div&gt;ERLÄ°KÃ–Y MAH %65&lt;/div&gt;&lt;div&gt;EDÄ°RNEKÃ–Y MAH %55&lt;/div&gt;" style="text;html=1;align=left;verticalAlign=middle;resizable=0;points=[];autosize=1;strokeColor=none;fillColor=none;" parent="1" vertex="1">
          <mxGeometry x="700" y="2210" width="150" height="60" as="geometry" />
        </mxCell>
        <mxCell id="BnfR5xpUt8AOpjAlY5EH-193" style="edgeStyle=orthogonalEdgeStyle;rounded=0;orthogonalLoop=1;jettySize=auto;html=1;entryX=1;entryY=0.5;entryDx=0;entryDy=0;" parent="1" source="BnfR5xpUt8AOpjAlY5EH-194" target="BnfR5xpUt8AOpjAlY5EH-230" edge="1">
          <mxGeometry relative="1" as="geometry" />
        </mxCell>
        <mxCell id="BnfR5xpUt8AOpjAlY5EH-194" value="Turkiye Postal Code DB" style="shape=cylinder3;whiteSpace=wrap;html=1;boundedLbl=1;backgroundOutline=1;size=15;fillColor=#f8cecc;strokeColor=#b85450;" parent="1" vertex="1">
          <mxGeometry x="360" y="2315" width="80" height="90" as="geometry" />
        </mxCell>
        <mxCell id="BnfR5xpUt8AOpjAlY5EH-195" value="&lt;font style=&quot;font-size: 8px;&quot;&gt;Search &lt;b&gt;&quot;Mahalle&quot;&lt;/b&gt; Column&lt;/font&gt;" style="text;html=1;align=center;verticalAlign=middle;whiteSpace=wrap;rounded=0;" parent="1" vertex="1">
          <mxGeometry x="452" y="2337" width="100" height="30" as="geometry" />
        </mxCell>
        <mxCell id="BnfR5xpUt8AOpjAlY5EH-196" value="" style="group;labelBackgroundColor=#FF6666;labelBorderColor=none;fillColor=#FF6666;" parent="1" vertex="1" connectable="0">
          <mxGeometry x="-30" y="2170" width="140" height="30" as="geometry" />
        </mxCell>
        <mxCell id="BnfR5xpUt8AOpjAlY5EH-198" value="" style="group;fillColor=#FF6666;" parent="1" vertex="1" connectable="0">
          <mxGeometry x="130" y="2170" width="150" height="30" as="geometry" />
        </mxCell>
        <mxCell id="BnfR5xpUt8AOpjAlY5EH-200" value="" style="group;fillColor=#FF6666;" parent="1" vertex="1" connectable="0">
          <mxGeometry x="311.25" y="2200" width="177.5" height="30" as="geometry" />
        </mxCell>
        <mxCell id="BnfR5xpUt8AOpjAlY5EH-201" value="ERENKÃ–Y MAHALLESÄ° 34728" style="text;html=1;align=center;verticalAlign=middle;resizable=0;points=[];autosize=1;strokeColor=none;fillColor=none;" parent="BnfR5xpUt8AOpjAlY5EH-200" vertex="1">
          <mxGeometry x="-5" width="190" height="30" as="geometry" />
        </mxCell>
        <mxCell id="BnfR5xpUt8AOpjAlY5EH-202" value="" style="group;labelBackgroundColor=#FF6666;labelBorderColor=none;fillColor=#FF6666;" parent="1" vertex="1" connectable="0">
          <mxGeometry x="-210" y="2210" width="150" height="30" as="geometry" />
        </mxCell>
        <mxCell id="BnfR5xpUt8AOpjAlY5EH-204" value="" style="group;fillColor=#FF6666;" parent="1" vertex="1" connectable="0">
          <mxGeometry x="700" y="2104" width="177.5" height="31" as="geometry" />
        </mxCell>
        <mxCell id="BnfR5xpUt8AOpjAlY5EH-205" value="ERNEKOY MAH." style="text;html=1;align=center;verticalAlign=middle;resizable=0;points=[];autosize=1;strokeColor=none;fillColor=none;" parent="BnfR5xpUt8AOpjAlY5EH-204" vertex="1">
          <mxGeometry width="120" height="30" as="geometry" />
        </mxCell>
        <mxCell id="BnfR5xpUt8AOpjAlY5EH-206" value="34738" style="text;html=1;align=center;verticalAlign=middle;resizable=0;points=[];autosize=1;strokeColor=none;fillColor=none;" parent="BnfR5xpUt8AOpjAlY5EH-204" vertex="1">
          <mxGeometry x="105" width="60" height="30" as="geometry" />
        </mxCell>
        <mxCell id="BnfR5xpUt8AOpjAlY5EH-207" value="" style="group;fillColor=#FF6666;" parent="BnfR5xpUt8AOpjAlY5EH-204" vertex="1" connectable="0">
          <mxGeometry y="1" width="177.5" height="30" as="geometry" />
        </mxCell>
        <mxCell id="BnfR5xpUt8AOpjAlY5EH-208" value="ERENKÃ–Y MAHALLESÄ°" style="text;html=1;align=center;verticalAlign=middle;resizable=0;points=[];autosize=1;strokeColor=none;fillColor=none;" parent="BnfR5xpUt8AOpjAlY5EH-207" vertex="1">
          <mxGeometry x="7.5" width="150" height="30" as="geometry" />
        </mxCell>
        <mxCell id="BnfR5xpUt8AOpjAlY5EH-248" value="" style="group;fillColor=#FF6666;" parent="BnfR5xpUt8AOpjAlY5EH-207" vertex="1" connectable="0">
          <mxGeometry width="177.5" height="30" as="geometry" />
        </mxCell>
        <mxCell id="BnfR5xpUt8AOpjAlY5EH-249" value="ERENKÃ–Y MAHALLESÄ° 34728" style="text;html=1;align=center;verticalAlign=middle;resizable=0;points=[];autosize=1;strokeColor=none;fillColor=none;" parent="BnfR5xpUt8AOpjAlY5EH-248" vertex="1">
          <mxGeometry x="-5" width="190" height="30" as="geometry" />
        </mxCell>
        <mxCell id="BnfR5xpUt8AOpjAlY5EH-209" style="edgeStyle=orthogonalEdgeStyle;rounded=0;orthogonalLoop=1;jettySize=auto;html=1;entryX=0.5;entryY=0;entryDx=0;entryDy=0;" parent="1" source="BnfR5xpUt8AOpjAlY5EH-210" target="BnfR5xpUt8AOpjAlY5EH-191" edge="1">
          <mxGeometry relative="1" as="geometry" />
        </mxCell>
        <mxCell id="BnfR5xpUt8AOpjAlY5EH-210" value="Input Address" style="rounded=0;whiteSpace=wrap;html=1;" parent="1" vertex="1">
          <mxGeometry x="560" y="2080" width="120" height="80" as="geometry" />
        </mxCell>
        <mxCell id="BnfR5xpUt8AOpjAlY5EH-211" style="edgeStyle=orthogonalEdgeStyle;rounded=0;orthogonalLoop=1;jettySize=auto;html=1;" parent="1" source="BnfR5xpUt8AOpjAlY5EH-212" target="BnfR5xpUt8AOpjAlY5EH-194" edge="1">
          <mxGeometry relative="1" as="geometry" />
        </mxCell>
        <mxCell id="BnfR5xpUt8AOpjAlY5EH-212" value="Output Address" style="rounded=0;whiteSpace=wrap;html=1;gradientColor=none;" parent="1" vertex="1">
          <mxGeometry x="560" y="2320" width="120" height="80" as="geometry" />
        </mxCell>
        <mxCell id="BnfR5xpUt8AOpjAlY5EH-213" value="" style="group;fillColor=#66FF66;container=0;" parent="1" vertex="1" connectable="0">
          <mxGeometry x="700" y="2345" width="165" height="30" as="geometry" />
        </mxCell>
        <mxCell id="BnfR5xpUt8AOpjAlY5EH-214" value="" style="group" parent="1" vertex="1" connectable="0">
          <mxGeometry x="-200" y="2040" width="120" height="160" as="geometry" />
        </mxCell>
        <mxCell id="BnfR5xpUt8AOpjAlY5EH-215" value="" style="group;fillColor=#ffcd28;gradientColor=#ffa500;strokeColor=#d79b00;container=0;" parent="BnfR5xpUt8AOpjAlY5EH-214" vertex="1" connectable="0">
          <mxGeometry width="120" height="160" as="geometry" />
        </mxCell>
        <mxCell id="BnfR5xpUt8AOpjAlY5EH-216" value="" style="rounded=0;whiteSpace=wrap;html=1;rotation=90;fillColor=#fff2cc;strokeColor=#d6b656;gradientColor=#ffd966;gradientDirection=east;" parent="BnfR5xpUt8AOpjAlY5EH-214" vertex="1">
          <mxGeometry x="-20" y="20" width="160" height="120" as="geometry" />
        </mxCell>
        <mxCell id="BnfR5xpUt8AOpjAlY5EH-217" value="" style="rounded=0;whiteSpace=wrap;html=1;" parent="BnfR5xpUt8AOpjAlY5EH-214" vertex="1">
          <mxGeometry x="10" y="30" width="30" height="10" as="geometry" />
        </mxCell>
        <mxCell id="BnfR5xpUt8AOpjAlY5EH-218" value="" style="rounded=0;whiteSpace=wrap;html=1;" parent="BnfR5xpUt8AOpjAlY5EH-214" vertex="1">
          <mxGeometry x="10" y="50" width="30" height="10" as="geometry" />
        </mxCell>
        <mxCell id="BnfR5xpUt8AOpjAlY5EH-219" value="" style="rounded=0;whiteSpace=wrap;html=1;" parent="BnfR5xpUt8AOpjAlY5EH-214" vertex="1">
          <mxGeometry x="10" y="70" width="30" height="10" as="geometry" />
        </mxCell>
        <mxCell id="BnfR5xpUt8AOpjAlY5EH-220" value="" style="rounded=0;whiteSpace=wrap;html=1;" parent="BnfR5xpUt8AOpjAlY5EH-214" vertex="1">
          <mxGeometry x="10" y="90" width="30" height="10" as="geometry" />
        </mxCell>
        <mxCell id="BnfR5xpUt8AOpjAlY5EH-221" value="" style="rounded=0;whiteSpace=wrap;html=1;" parent="BnfR5xpUt8AOpjAlY5EH-214" vertex="1">
          <mxGeometry x="70" y="30" width="30" height="10" as="geometry" />
        </mxCell>
        <mxCell id="BnfR5xpUt8AOpjAlY5EH-222" value="" style="rounded=0;whiteSpace=wrap;html=1;" parent="BnfR5xpUt8AOpjAlY5EH-214" vertex="1">
          <mxGeometry x="70" y="50" width="30" height="10" as="geometry" />
        </mxCell>
        <mxCell id="BnfR5xpUt8AOpjAlY5EH-223" value="" style="rounded=0;whiteSpace=wrap;html=1;" parent="BnfR5xpUt8AOpjAlY5EH-214" vertex="1">
          <mxGeometry x="70" y="70" width="30" height="10" as="geometry" />
        </mxCell>
        <mxCell id="BnfR5xpUt8AOpjAlY5EH-224" value="" style="rounded=0;whiteSpace=wrap;html=1;" parent="BnfR5xpUt8AOpjAlY5EH-214" vertex="1">
          <mxGeometry x="70" y="90" width="30" height="10" as="geometry" />
        </mxCell>
        <mxCell id="BnfR5xpUt8AOpjAlY5EH-225" value="" style="endArrow=none;html=1;rounded=0;entryX=0.125;entryY=0.5;entryDx=0;entryDy=0;entryPerimeter=0;" parent="BnfR5xpUt8AOpjAlY5EH-214" edge="1">
          <mxGeometry width="50" height="50" relative="1" as="geometry">
            <mxPoint x="55.81999999999999" y="140" as="sourcePoint" />
            <mxPoint x="55.81999999999999" y="20" as="targetPoint" />
          </mxGeometry>
        </mxCell>
        <UserObject label="mydhl.express.dhl" link="mydhl.express.dhl" id="BnfR5xpUt8AOpjAlY5EH-226">
          <mxCell style="text;whiteSpace=wrap;fontSize=10;" parent="BnfR5xpUt8AOpjAlY5EH-214" vertex="1">
            <mxGeometry x="15" width="90" height="20" as="geometry" />
          </mxCell>
        </UserObject>
        <mxCell id="BnfR5xpUt8AOpjAlY5EH-227" value="ERENKÃ–Y MAH" style="text;html=1;align=center;verticalAlign=middle;resizable=0;points=[];autosize=1;strokeColor=none;fillColor=#66FF66;" parent="1" vertex="1">
          <mxGeometry x="447" y="2367" width="110" height="30" as="geometry" />
        </mxCell>
        <mxCell id="BnfR5xpUt8AOpjAlY5EH-228" value="" style="group" parent="1" vertex="1" connectable="0">
          <mxGeometry x="705" y="2345" width="160" height="35" as="geometry" />
        </mxCell>
        <mxCell id="BnfR5xpUt8AOpjAlY5EH-229" value="ERENKÃ–Y MAH" style="text;html=1;align=center;verticalAlign=middle;resizable=0;points=[];autosize=1;strokeColor=none;fillColor=none;" parent="BnfR5xpUt8AOpjAlY5EH-228" vertex="1">
          <mxGeometry width="110" height="30" as="geometry" />
        </mxCell>
        <mxCell id="BnfR5xpUt8AOpjAlY5EH-252" value="34728" style="text;html=1;align=center;verticalAlign=middle;resizable=0;points=[];autosize=1;strokeColor=none;fillColor=#FF6666;" parent="BnfR5xpUt8AOpjAlY5EH-228" vertex="1">
          <mxGeometry x="100" width="60" height="30" as="geometry" />
        </mxCell>
        <mxCell id="BnfR5xpUt8AOpjAlY5EH-253" value="" style="shape=mxgraph.mockup.markup.redX;fillColor=#ff0000;html=1;shadow=0;whiteSpace=wrap;strokeColor=none;fillOpacity=53;strokeOpacity=50;" parent="BnfR5xpUt8AOpjAlY5EH-228" vertex="1">
          <mxGeometry x="112.5" y="-5" width="35" height="40" as="geometry" />
        </mxCell>
        <mxCell id="BnfR5xpUt8AOpjAlY5EH-230" value="Output Postal Code" style="rounded=0;whiteSpace=wrap;html=1;gradientColor=none;" parent="1" vertex="1">
          <mxGeometry x="160" y="2320" width="120" height="80" as="geometry" />
        </mxCell>
        <mxCell id="BnfR5xpUt8AOpjAlY5EH-231" value="&lt;span style=&quot;font-size: 8px;&quot;&gt;Return &lt;b&gt;&quot;PK&quot;&lt;/b&gt;&lt;/span&gt;" style="text;html=1;align=center;verticalAlign=middle;whiteSpace=wrap;rounded=0;" parent="1" vertex="1">
          <mxGeometry x="274" y="2337" width="100" height="30" as="geometry" />
        </mxCell>
        <mxCell id="BnfR5xpUt8AOpjAlY5EH-232" style="edgeStyle=orthogonalEdgeStyle;rounded=0;orthogonalLoop=1;jettySize=auto;html=1;entryX=0;entryY=0.5;entryDx=0;entryDy=0;" parent="1" source="BnfR5xpUt8AOpjAlY5EH-233" target="BnfR5xpUt8AOpjAlY5EH-243" edge="1">
          <mxGeometry relative="1" as="geometry">
            <mxPoint x="437" y="2480" as="targetPoint" />
            <Array as="points">
              <mxPoint x="220" y="2480" />
            </Array>
          </mxGeometry>
        </mxCell>
        <mxCell id="BnfR5xpUt8AOpjAlY5EH-233" value="34738" style="text;html=1;align=center;verticalAlign=middle;resizable=0;points=[];autosize=1;strokeColor=none;fillColor=#66FF66;" parent="1" vertex="1">
          <mxGeometry x="190" y="2405" width="60" height="30" as="geometry" />
        </mxCell>
        <mxCell id="BnfR5xpUt8AOpjAlY5EH-234" value="&lt;font style=&quot;font-size: 16px;&quot;&gt;&lt;b style=&quot;&quot;&gt;Scenario 3:&lt;/b&gt; Address Correct / Postal Code Wrong&amp;nbsp;&lt;/font&gt;" style="text;html=1;align=left;verticalAlign=middle;resizable=0;points=[];autosize=1;strokeColor=none;fillColor=none;" parent="1" vertex="1">
          <mxGeometry x="-200" y="2000" width="390" height="30" as="geometry" />
        </mxCell>
        <mxCell id="BnfR5xpUt8AOpjAlY5EH-235" style="edgeStyle=orthogonalEdgeStyle;rounded=0;orthogonalLoop=1;jettySize=auto;html=1;entryX=0.5;entryY=1.05;entryDx=0;entryDy=0;entryPerimeter=0;" parent="1" edge="1">
          <mxGeometry relative="1" as="geometry">
            <mxPoint x="560" y="2480" as="sourcePoint" />
            <mxPoint x="835" y="2382" as="targetPoint" />
          </mxGeometry>
        </mxCell>
        <mxCell id="BnfR5xpUt8AOpjAlY5EH-236" style="edgeStyle=orthogonalEdgeStyle;rounded=0;orthogonalLoop=1;jettySize=auto;html=1;entryX=0.727;entryY=-0.05;entryDx=0;entryDy=0;entryPerimeter=0;" parent="1" source="BnfR5xpUt8AOpjAlY5EH-237" target="BnfR5xpUt8AOpjAlY5EH-242" edge="1">
          <mxGeometry relative="1" as="geometry">
            <mxPoint x="980" y="2440" as="targetPoint" />
          </mxGeometry>
        </mxCell>
        <mxCell id="BnfR5xpUt8AOpjAlY5EH-237" value="Validate" style="ellipse;whiteSpace=wrap;html=1;" parent="1" vertex="1">
          <mxGeometry x="920" y="2330" width="120" height="60" as="geometry" />
        </mxCell>
        <mxCell id="BnfR5xpUt8AOpjAlY5EH-238" style="edgeStyle=orthogonalEdgeStyle;rounded=0;orthogonalLoop=1;jettySize=auto;html=1;entryX=0;entryY=0.5;entryDx=0;entryDy=0;" parent="1" target="BnfR5xpUt8AOpjAlY5EH-237" edge="1">
          <mxGeometry relative="1" as="geometry">
            <mxPoint x="860" y="2360" as="sourcePoint" />
          </mxGeometry>
        </mxCell>
        <mxCell id="BnfR5xpUt8AOpjAlY5EH-239" value="" style="group;fillColor=#66FF66;container=0;" parent="1" vertex="1" connectable="0">
          <mxGeometry x="900" y="2450" width="160" height="30" as="geometry" />
        </mxCell>
        <mxCell id="BnfR5xpUt8AOpjAlY5EH-240" value="" style="group" parent="1" vertex="1" connectable="0">
          <mxGeometry x="900" y="2450" width="160" height="30" as="geometry" />
        </mxCell>
        <mxCell id="BnfR5xpUt8AOpjAlY5EH-241" value="34738" style="text;html=1;align=center;verticalAlign=middle;resizable=0;points=[];autosize=1;strokeColor=none;fillColor=#66FF66;" parent="BnfR5xpUt8AOpjAlY5EH-240" vertex="1">
          <mxGeometry x="100" width="60" height="30" as="geometry" />
        </mxCell>
        <mxCell id="BnfR5xpUt8AOpjAlY5EH-242" value="ERENKÃ–Y MAH" style="text;html=1;align=center;verticalAlign=middle;resizable=0;points=[];autosize=1;strokeColor=none;fillColor=none;" parent="BnfR5xpUt8AOpjAlY5EH-240" vertex="1">
          <mxGeometry width="110" height="30" as="geometry" />
        </mxCell>
        <mxCell id="BnfR5xpUt8AOpjAlY5EH-243" value="Check Postal Code" style="ellipse;whiteSpace=wrap;html=1;" parent="1" vertex="1">
          <mxGeometry x="440" y="2450" width="120" height="60" as="geometry" />
        </mxCell>
        <mxCell id="BnfR5xpUt8AOpjAlY5EH-203" value="&lt;span&gt;ErenkÃ¶y Mahallesi&amp;nbsp;&lt;/span&gt;34728" style="text;html=1;align=center;verticalAlign=middle;resizable=0;points=[];autosize=1;strokeColor=none;fillColor=none;" parent="1" vertex="1">
          <mxGeometry x="-215" y="2210" width="160" height="30" as="geometry" />
        </mxCell>
        <mxCell id="BnfR5xpUt8AOpjAlY5EH-245" value="(34728 -&gt; Caddebostan Mah.)" style="text;whiteSpace=wrap;" parent="1" vertex="1">
          <mxGeometry x="-220" y="2250" width="170" height="30" as="geometry" />
        </mxCell>
        <mxCell id="BnfR5xpUt8AOpjAlY5EH-246" value="&lt;span&gt;ErenkÃ¶y Mahallesi&amp;nbsp;&lt;/span&gt;34728" style="text;html=1;align=center;verticalAlign=middle;resizable=0;points=[];autosize=1;strokeColor=none;fillColor=none;" parent="1" vertex="1">
          <mxGeometry x="-40" y="2170" width="160" height="30" as="geometry" />
        </mxCell>
        <mxCell id="BnfR5xpUt8AOpjAlY5EH-247" value="&lt;span&gt;ErenkÃ¶y Mahallesi&amp;nbsp;&lt;/span&gt;34728" style="text;html=1;align=center;verticalAlign=middle;resizable=0;points=[];autosize=1;strokeColor=none;fillColor=none;" parent="1" vertex="1">
          <mxGeometry x="125" y="2170" width="160" height="30" as="geometry" />
        </mxCell>
        <mxCell id="BnfR5xpUt8AOpjAlY5EH-255" value="" style="group" parent="1" vertex="1" connectable="0">
          <mxGeometry x="-220" y="800" width="1372" height="510" as="geometry" />
        </mxCell>
        <mxCell id="BnfR5xpUt8AOpjAlY5EH-22" style="edgeStyle=orthogonalEdgeStyle;rounded=0;orthogonalLoop=1;jettySize=auto;html=1;" parent="BnfR5xpUt8AOpjAlY5EH-255" source="BnfR5xpUt8AOpjAlY5EH-18" target="BnfR5xpUt8AOpjAlY5EH-21" edge="1">
          <mxGeometry relative="1" as="geometry" />
        </mxCell>
        <mxCell id="BnfR5xpUt8AOpjAlY5EH-18" value="Manifest Data" style="shape=cylinder3;whiteSpace=wrap;html=1;boundedLbl=1;backgroundOutline=1;size=15;fillColor=#f8cecc;strokeColor=#b85450;" parent="BnfR5xpUt8AOpjAlY5EH-255" vertex="1">
          <mxGeometry x="220" y="75" width="80" height="90" as="geometry" />
        </mxCell>
        <mxCell id="BnfR5xpUt8AOpjAlY5EH-20" style="edgeStyle=orthogonalEdgeStyle;rounded=0;orthogonalLoop=1;jettySize=auto;html=1;entryX=0;entryY=0.5;entryDx=0;entryDy=0;entryPerimeter=0;" parent="BnfR5xpUt8AOpjAlY5EH-255" source="BnfR5xpUt8AOpjAlY5EH-6" target="BnfR5xpUt8AOpjAlY5EH-18" edge="1">
          <mxGeometry relative="1" as="geometry" />
        </mxCell>
        <mxCell id="BnfR5xpUt8AOpjAlY5EH-27" style="edgeStyle=orthogonalEdgeStyle;rounded=0;orthogonalLoop=1;jettySize=auto;html=1;entryX=0;entryY=0.5;entryDx=0;entryDy=0;" parent="BnfR5xpUt8AOpjAlY5EH-255" source="BnfR5xpUt8AOpjAlY5EH-21" target="BnfR5xpUt8AOpjAlY5EH-26" edge="1">
          <mxGeometry relative="1" as="geometry" />
        </mxCell>
        <mxCell id="BnfR5xpUt8AOpjAlY5EH-21" value="" style="shape=image;html=1;verticalAlign=top;verticalLabelPosition=bottom;labelBackgroundColor=#ffffff;imageAspect=0;aspect=fixed;image=https://cdn3.iconfinder.com/data/icons/document-icons-2/30/647702-excel-128.png" parent="BnfR5xpUt8AOpjAlY5EH-255" vertex="1">
          <mxGeometry x="380" y="80" width="80" height="80" as="geometry" />
        </mxCell>
        <mxCell id="BnfR5xpUt8AOpjAlY5EH-24" value="&lt;font style=&quot;font-size: 8px;&quot;&gt;Excel Export&lt;/font&gt;" style="text;html=1;align=center;verticalAlign=middle;whiteSpace=wrap;rounded=0;" parent="BnfR5xpUt8AOpjAlY5EH-255" vertex="1">
          <mxGeometry x="310" y="90" width="60" height="30" as="geometry" />
        </mxCell>
        <mxCell id="BnfR5xpUt8AOpjAlY5EH-59" style="edgeStyle=orthogonalEdgeStyle;rounded=0;orthogonalLoop=1;jettySize=auto;html=1;entryX=0;entryY=0.5;entryDx=0;entryDy=0;" parent="BnfR5xpUt8AOpjAlY5EH-255" source="BnfR5xpUt8AOpjAlY5EH-26" target="BnfR5xpUt8AOpjAlY5EH-58" edge="1">
          <mxGeometry relative="1" as="geometry">
            <mxPoint x="770" y="120" as="targetPoint" />
          </mxGeometry>
        </mxCell>
        <mxCell id="BnfR5xpUt8AOpjAlY5EH-26" value="&lt;div&gt;&lt;br&gt;&lt;/div&gt;&lt;ol&gt;&lt;li&gt;&lt;span style=&quot;background-color: transparent; color: light-dark(rgb(0, 0, 0), rgb(255, 255, 255));&quot;&gt;Preserves Turkish characters&lt;/span&gt;&lt;/li&gt;&lt;li&gt;&lt;span style=&quot;background-color: transparent; color: light-dark(rgb(0, 0, 0), rgb(255, 255, 255));&quot;&gt;Converts everything to uppercase&lt;/span&gt;&lt;/li&gt;&lt;li&gt;&lt;span style=&quot;background-color: transparent; color: light-dark(rgb(0, 0, 0), rgb(255, 255, 255));&quot;&gt;Keeps abbreviations&lt;/span&gt;&lt;/li&gt;&lt;li&gt;&lt;span style=&quot;background-color: transparent; color: light-dark(rgb(0, 0, 0), rgb(255, 255, 255));&quot;&gt;Removes punctuation&lt;/span&gt;&lt;/li&gt;&lt;/ol&gt;" style="rounded=0;whiteSpace=wrap;html=1;align=left;verticalAlign=middle;" parent="BnfR5xpUt8AOpjAlY5EH-255" vertex="1">
          <mxGeometry x="540" y="60" width="160" height="120" as="geometry" />
        </mxCell>
        <mxCell id="BnfR5xpUt8AOpjAlY5EH-28" value="&lt;b&gt;Data Normalization&lt;/b&gt;" style="text;html=1;align=center;verticalAlign=middle;whiteSpace=wrap;rounded=0;" parent="BnfR5xpUt8AOpjAlY5EH-255" vertex="1">
          <mxGeometry x="540" y="60" width="160" height="30" as="geometry" />
        </mxCell>
        <mxCell id="BnfR5xpUt8AOpjAlY5EH-29" value="&lt;font style=&quot;font-size: 8px;&quot;&gt;Write Data&lt;/font&gt;" style="text;html=1;align=center;verticalAlign=middle;whiteSpace=wrap;rounded=0;" parent="BnfR5xpUt8AOpjAlY5EH-255" vertex="1">
          <mxGeometry x="150" y="90" width="60" height="30" as="geometry" />
        </mxCell>
        <mxCell id="BnfR5xpUt8AOpjAlY5EH-30" value="&lt;font style=&quot;font-size: 8px;&quot;&gt;Transform Data&lt;/font&gt;" style="text;html=1;align=center;verticalAlign=middle;whiteSpace=wrap;rounded=0;" parent="BnfR5xpUt8AOpjAlY5EH-255" vertex="1">
          <mxGeometry x="470" y="90" width="60" height="30" as="geometry" />
        </mxCell>
        <mxCell id="BnfR5xpUt8AOpjAlY5EH-63" style="edgeStyle=orthogonalEdgeStyle;rounded=0;orthogonalLoop=1;jettySize=auto;html=1;" parent="BnfR5xpUt8AOpjAlY5EH-255" source="BnfR5xpUt8AOpjAlY5EH-35" target="BnfR5xpUt8AOpjAlY5EH-61" edge="1">
          <mxGeometry relative="1" as="geometry" />
        </mxCell>
        <mxCell id="BnfR5xpUt8AOpjAlY5EH-35" value="Fuzzy&lt;div&gt;Matching&lt;/div&gt;" style="ellipse;whiteSpace=wrap;html=1;" parent="BnfR5xpUt8AOpjAlY5EH-255" vertex="1">
          <mxGeometry x="780" y="210" width="120" height="60" as="geometry" />
        </mxCell>
        <mxCell id="BnfR5xpUt8AOpjAlY5EH-38" value="&lt;font style=&quot;color: rgb(0, 153, 0);&quot;&gt;ERENKÃ–Y MAH %99&lt;/font&gt;&lt;div&gt;ERLÄ°KÃ–Y MAH %70&lt;/div&gt;&lt;div&gt;EDÄ°RNEKÃ–Y MAH %50&lt;/div&gt;" style="text;html=1;align=left;verticalAlign=middle;resizable=0;points=[];autosize=1;strokeColor=none;fillColor=none;" parent="BnfR5xpUt8AOpjAlY5EH-255" vertex="1">
          <mxGeometry x="920" y="210" width="150" height="60" as="geometry" />
        </mxCell>
        <mxCell id="BnfR5xpUt8AOpjAlY5EH-88" style="edgeStyle=orthogonalEdgeStyle;rounded=0;orthogonalLoop=1;jettySize=auto;html=1;entryX=1;entryY=0.5;entryDx=0;entryDy=0;" parent="BnfR5xpUt8AOpjAlY5EH-255" source="BnfR5xpUt8AOpjAlY5EH-41" target="BnfR5xpUt8AOpjAlY5EH-87" edge="1">
          <mxGeometry relative="1" as="geometry" />
        </mxCell>
        <mxCell id="BnfR5xpUt8AOpjAlY5EH-41" value="Turkiye Postal Code DB" style="shape=cylinder3;whiteSpace=wrap;html=1;boundedLbl=1;backgroundOutline=1;size=15;fillColor=#f8cecc;strokeColor=#b85450;" parent="BnfR5xpUt8AOpjAlY5EH-255" vertex="1">
          <mxGeometry x="580" y="315" width="80" height="90" as="geometry" />
        </mxCell>
        <mxCell id="BnfR5xpUt8AOpjAlY5EH-43" value="&lt;font style=&quot;font-size: 8px;&quot;&gt;Search &lt;b&gt;&quot;Mahalle&quot;&lt;/b&gt; Column&lt;/font&gt;" style="text;html=1;align=center;verticalAlign=middle;whiteSpace=wrap;rounded=0;" parent="BnfR5xpUt8AOpjAlY5EH-255" vertex="1">
          <mxGeometry x="672" y="337" width="100" height="30" as="geometry" />
        </mxCell>
        <mxCell id="BnfR5xpUt8AOpjAlY5EH-46" value="" style="group;labelBackgroundColor=#FF6666;labelBorderColor=none;fillColor=#FF6666;" parent="BnfR5xpUt8AOpjAlY5EH-255" vertex="1" connectable="0">
          <mxGeometry x="170" y="170" width="160" height="30" as="geometry" />
        </mxCell>
        <mxCell id="BnfR5xpUt8AOpjAlY5EH-31" value="&lt;span&gt;ernekoy mah.&lt;/span&gt;" style="text;html=1;align=center;verticalAlign=middle;resizable=0;points=[];autosize=1;strokeColor=none;fillColor=none;" parent="BnfR5xpUt8AOpjAlY5EH-46" vertex="1">
          <mxGeometry width="100" height="30" as="geometry" />
        </mxCell>
        <mxCell id="BnfR5xpUt8AOpjAlY5EH-32" value="&lt;span&gt;34738&lt;/span&gt;" style="text;html=1;align=center;verticalAlign=middle;resizable=0;points=[];autosize=1;strokeColor=none;fillColor=none;" parent="BnfR5xpUt8AOpjAlY5EH-46" vertex="1">
          <mxGeometry x="100" width="60" height="30" as="geometry" />
        </mxCell>
        <mxCell id="BnfR5xpUt8AOpjAlY5EH-47" value="" style="group;fillColor=#FF6666;" parent="BnfR5xpUt8AOpjAlY5EH-255" vertex="1" connectable="0">
          <mxGeometry x="350" y="170" width="160" height="30" as="geometry" />
        </mxCell>
        <mxCell id="BnfR5xpUt8AOpjAlY5EH-44" value="&lt;span&gt;ernekoy mah.&lt;/span&gt;" style="text;html=1;align=center;verticalAlign=middle;resizable=0;points=[];autosize=1;strokeColor=none;fillColor=none;" parent="BnfR5xpUt8AOpjAlY5EH-47" vertex="1">
          <mxGeometry width="100" height="30" as="geometry" />
        </mxCell>
        <mxCell id="BnfR5xpUt8AOpjAlY5EH-45" value="34738" style="text;html=1;align=center;verticalAlign=middle;resizable=0;points=[];autosize=1;strokeColor=none;fillColor=none;" parent="BnfR5xpUt8AOpjAlY5EH-47" vertex="1">
          <mxGeometry x="100" width="60" height="30" as="geometry" />
        </mxCell>
        <mxCell id="BnfR5xpUt8AOpjAlY5EH-50" value="" style="group;fillColor=#FF6666;" parent="BnfR5xpUt8AOpjAlY5EH-255" vertex="1" connectable="0">
          <mxGeometry x="537.5" y="210" width="165" height="30" as="geometry" />
        </mxCell>
        <mxCell id="BnfR5xpUt8AOpjAlY5EH-48" value="ERNEKOY MAH." style="text;html=1;align=center;verticalAlign=middle;resizable=0;points=[];autosize=1;strokeColor=none;fillColor=none;" parent="BnfR5xpUt8AOpjAlY5EH-50" vertex="1">
          <mxGeometry width="120" height="30" as="geometry" />
        </mxCell>
        <mxCell id="BnfR5xpUt8AOpjAlY5EH-49" value="34738" style="text;html=1;align=center;verticalAlign=middle;resizable=0;points=[];autosize=1;strokeColor=none;fillColor=none;" parent="BnfR5xpUt8AOpjAlY5EH-50" vertex="1">
          <mxGeometry x="105" width="60" height="30" as="geometry" />
        </mxCell>
        <mxCell id="BnfR5xpUt8AOpjAlY5EH-51" value="" style="group;labelBackgroundColor=#FF6666;labelBorderColor=none;fillColor=#FF6666;" parent="BnfR5xpUt8AOpjAlY5EH-255" vertex="1" connectable="0">
          <mxGeometry y="210" width="160" height="30" as="geometry" />
        </mxCell>
        <mxCell id="BnfR5xpUt8AOpjAlY5EH-52" value="&lt;span&gt;ernekoy mah.&lt;/span&gt;" style="text;html=1;align=center;verticalAlign=middle;resizable=0;points=[];autosize=1;strokeColor=none;fillColor=none;" parent="BnfR5xpUt8AOpjAlY5EH-51" vertex="1">
          <mxGeometry width="100" height="30" as="geometry" />
        </mxCell>
        <mxCell id="BnfR5xpUt8AOpjAlY5EH-53" value="&lt;span&gt;34738&lt;/span&gt;" style="text;html=1;align=center;verticalAlign=middle;resizable=0;points=[];autosize=1;strokeColor=none;fillColor=none;" parent="BnfR5xpUt8AOpjAlY5EH-51" vertex="1">
          <mxGeometry x="100" width="60" height="30" as="geometry" />
        </mxCell>
        <mxCell id="BnfR5xpUt8AOpjAlY5EH-54" value="" style="group;fillColor=#FF6666;" parent="BnfR5xpUt8AOpjAlY5EH-255" vertex="1" connectable="0">
          <mxGeometry x="920" y="104" width="165" height="30" as="geometry" />
        </mxCell>
        <mxCell id="BnfR5xpUt8AOpjAlY5EH-33" value="ERNEKOY MAH." style="text;html=1;align=center;verticalAlign=middle;resizable=0;points=[];autosize=1;strokeColor=none;fillColor=none;" parent="BnfR5xpUt8AOpjAlY5EH-54" vertex="1">
          <mxGeometry width="120" height="30" as="geometry" />
        </mxCell>
        <mxCell id="BnfR5xpUt8AOpjAlY5EH-34" value="34738" style="text;html=1;align=center;verticalAlign=middle;resizable=0;points=[];autosize=1;strokeColor=none;fillColor=none;" parent="BnfR5xpUt8AOpjAlY5EH-54" vertex="1">
          <mxGeometry x="105" width="60" height="30" as="geometry" />
        </mxCell>
        <mxCell id="BnfR5xpUt8AOpjAlY5EH-62" style="edgeStyle=orthogonalEdgeStyle;rounded=0;orthogonalLoop=1;jettySize=auto;html=1;entryX=0.5;entryY=0;entryDx=0;entryDy=0;" parent="BnfR5xpUt8AOpjAlY5EH-255" source="BnfR5xpUt8AOpjAlY5EH-58" target="BnfR5xpUt8AOpjAlY5EH-35" edge="1">
          <mxGeometry relative="1" as="geometry" />
        </mxCell>
        <mxCell id="BnfR5xpUt8AOpjAlY5EH-58" value="Input Address" style="rounded=0;whiteSpace=wrap;html=1;" parent="BnfR5xpUt8AOpjAlY5EH-255" vertex="1">
          <mxGeometry x="780" y="80" width="120" height="80" as="geometry" />
        </mxCell>
        <mxCell id="BnfR5xpUt8AOpjAlY5EH-69" style="edgeStyle=orthogonalEdgeStyle;rounded=0;orthogonalLoop=1;jettySize=auto;html=1;" parent="BnfR5xpUt8AOpjAlY5EH-255" source="BnfR5xpUt8AOpjAlY5EH-61" target="BnfR5xpUt8AOpjAlY5EH-41" edge="1">
          <mxGeometry relative="1" as="geometry" />
        </mxCell>
        <mxCell id="BnfR5xpUt8AOpjAlY5EH-61" value="Output Address" style="rounded=0;whiteSpace=wrap;html=1;gradientColor=none;" parent="BnfR5xpUt8AOpjAlY5EH-255" vertex="1">
          <mxGeometry x="780" y="320" width="120" height="80" as="geometry" />
        </mxCell>
        <mxCell id="BnfR5xpUt8AOpjAlY5EH-66" value="" style="group;fillColor=#66FF66;container=0;" parent="BnfR5xpUt8AOpjAlY5EH-255" vertex="1" connectable="0">
          <mxGeometry x="920" y="345" width="165" height="30" as="geometry" />
        </mxCell>
        <mxCell id="BnfR5xpUt8AOpjAlY5EH-82" value="" style="group" parent="BnfR5xpUt8AOpjAlY5EH-255" vertex="1" connectable="0">
          <mxGeometry x="20" y="40" width="120" height="160" as="geometry" />
        </mxCell>
        <mxCell id="BnfR5xpUt8AOpjAlY5EH-17" value="" style="group;fillColor=#ffcd28;gradientColor=#ffa500;strokeColor=#d79b00;container=0;" parent="BnfR5xpUt8AOpjAlY5EH-82" vertex="1" connectable="0">
          <mxGeometry width="120" height="160" as="geometry" />
        </mxCell>
        <mxCell id="BnfR5xpUt8AOpjAlY5EH-6" value="" style="rounded=0;whiteSpace=wrap;html=1;rotation=90;fillColor=#fff2cc;strokeColor=#d6b656;gradientColor=#ffd966;gradientDirection=east;" parent="BnfR5xpUt8AOpjAlY5EH-82" vertex="1">
          <mxGeometry x="-20" y="20" width="160" height="120" as="geometry" />
        </mxCell>
        <mxCell id="BnfR5xpUt8AOpjAlY5EH-7" value="" style="rounded=0;whiteSpace=wrap;html=1;" parent="BnfR5xpUt8AOpjAlY5EH-82" vertex="1">
          <mxGeometry x="10" y="30" width="30" height="10" as="geometry" />
        </mxCell>
        <mxCell id="BnfR5xpUt8AOpjAlY5EH-8" value="" style="rounded=0;whiteSpace=wrap;html=1;" parent="BnfR5xpUt8AOpjAlY5EH-82" vertex="1">
          <mxGeometry x="10" y="50" width="30" height="10" as="geometry" />
        </mxCell>
        <mxCell id="BnfR5xpUt8AOpjAlY5EH-9" value="" style="rounded=0;whiteSpace=wrap;html=1;" parent="BnfR5xpUt8AOpjAlY5EH-82" vertex="1">
          <mxGeometry x="10" y="70" width="30" height="10" as="geometry" />
        </mxCell>
        <mxCell id="BnfR5xpUt8AOpjAlY5EH-10" value="" style="rounded=0;whiteSpace=wrap;html=1;" parent="BnfR5xpUt8AOpjAlY5EH-82" vertex="1">
          <mxGeometry x="10" y="90" width="30" height="10" as="geometry" />
        </mxCell>
        <mxCell id="BnfR5xpUt8AOpjAlY5EH-11" value="" style="rounded=0;whiteSpace=wrap;html=1;" parent="BnfR5xpUt8AOpjAlY5EH-82" vertex="1">
          <mxGeometry x="70" y="30" width="30" height="10" as="geometry" />
        </mxCell>
        <mxCell id="BnfR5xpUt8AOpjAlY5EH-12" value="" style="rounded=0;whiteSpace=wrap;html=1;" parent="BnfR5xpUt8AOpjAlY5EH-82" vertex="1">
          <mxGeometry x="70" y="50" width="30" height="10" as="geometry" />
        </mxCell>
        <mxCell id="BnfR5xpUt8AOpjAlY5EH-13" value="" style="rounded=0;whiteSpace=wrap;html=1;" parent="BnfR5xpUt8AOpjAlY5EH-82" vertex="1">
          <mxGeometry x="70" y="70" width="30" height="10" as="geometry" />
        </mxCell>
        <mxCell id="BnfR5xpUt8AOpjAlY5EH-14" value="" style="rounded=0;whiteSpace=wrap;html=1;" parent="BnfR5xpUt8AOpjAlY5EH-82" vertex="1">
          <mxGeometry x="70" y="90" width="30" height="10" as="geometry" />
        </mxCell>
        <mxCell id="BnfR5xpUt8AOpjAlY5EH-15" value="" style="endArrow=none;html=1;rounded=0;entryX=0.125;entryY=0.5;entryDx=0;entryDy=0;entryPerimeter=0;" parent="BnfR5xpUt8AOpjAlY5EH-82" edge="1">
          <mxGeometry width="50" height="50" relative="1" as="geometry">
            <mxPoint x="55.81999999999999" y="140" as="sourcePoint" />
            <mxPoint x="55.81999999999999" y="20" as="targetPoint" />
          </mxGeometry>
        </mxCell>
        <UserObject label="mydhl.express.dhl" link="mydhl.express.dhl" id="BnfR5xpUt8AOpjAlY5EH-16">
          <mxCell style="text;whiteSpace=wrap;fontSize=10;" parent="BnfR5xpUt8AOpjAlY5EH-82" vertex="1">
            <mxGeometry x="15" width="90" height="20" as="geometry" />
          </mxCell>
        </UserObject>
        <mxCell id="BnfR5xpUt8AOpjAlY5EH-84" value="ERENKÃ–Y MAH" style="text;html=1;align=center;verticalAlign=middle;resizable=0;points=[];autosize=1;strokeColor=none;fillColor=#66FF66;" parent="BnfR5xpUt8AOpjAlY5EH-255" vertex="1">
          <mxGeometry x="667" y="367" width="110" height="30" as="geometry" />
        </mxCell>
        <mxCell id="BnfR5xpUt8AOpjAlY5EH-85" value="" style="group" parent="BnfR5xpUt8AOpjAlY5EH-255" vertex="1" connectable="0">
          <mxGeometry x="925" y="345" width="160" height="30" as="geometry" />
        </mxCell>
        <mxCell id="BnfR5xpUt8AOpjAlY5EH-68" value="34738" style="text;html=1;align=center;verticalAlign=middle;resizable=0;points=[];autosize=1;strokeColor=none;fillColor=#FF6666;" parent="BnfR5xpUt8AOpjAlY5EH-85" vertex="1">
          <mxGeometry x="100" width="60" height="30" as="geometry" />
        </mxCell>
        <mxCell id="BnfR5xpUt8AOpjAlY5EH-67" value="ERENKÃ–Y MAH" style="text;html=1;align=center;verticalAlign=middle;resizable=0;points=[];autosize=1;strokeColor=none;fillColor=none;" parent="BnfR5xpUt8AOpjAlY5EH-85" vertex="1">
          <mxGeometry width="110" height="30" as="geometry" />
        </mxCell>
        <mxCell id="BnfR5xpUt8AOpjAlY5EH-87" value="Output Postal Code" style="rounded=0;whiteSpace=wrap;html=1;gradientColor=none;" parent="BnfR5xpUt8AOpjAlY5EH-255" vertex="1">
          <mxGeometry x="380" y="320" width="120" height="80" as="geometry" />
        </mxCell>
        <mxCell id="BnfR5xpUt8AOpjAlY5EH-89" value="&lt;span style=&quot;font-size: 8px;&quot;&gt;Return &lt;b&gt;&quot;PK&quot;&lt;/b&gt;&lt;/span&gt;" style="text;html=1;align=center;verticalAlign=middle;whiteSpace=wrap;rounded=0;" parent="BnfR5xpUt8AOpjAlY5EH-255" vertex="1">
          <mxGeometry x="494" y="337" width="100" height="30" as="geometry" />
        </mxCell>
        <mxCell id="BnfR5xpUt8AOpjAlY5EH-98" style="edgeStyle=orthogonalEdgeStyle;rounded=0;orthogonalLoop=1;jettySize=auto;html=1;entryX=0;entryY=0.5;entryDx=0;entryDy=0;" parent="BnfR5xpUt8AOpjAlY5EH-255" source="BnfR5xpUt8AOpjAlY5EH-91" target="BnfR5xpUt8AOpjAlY5EH-107" edge="1">
          <mxGeometry relative="1" as="geometry">
            <mxPoint x="657" y="480" as="targetPoint" />
            <Array as="points">
              <mxPoint x="440" y="480" />
            </Array>
          </mxGeometry>
        </mxCell>
        <mxCell id="BnfR5xpUt8AOpjAlY5EH-91" value="34738" style="text;html=1;align=center;verticalAlign=middle;resizable=0;points=[];autosize=1;strokeColor=none;fillColor=#66FF66;" parent="BnfR5xpUt8AOpjAlY5EH-255" vertex="1">
          <mxGeometry x="410" y="405" width="60" height="30" as="geometry" />
        </mxCell>
        <mxCell id="BnfR5xpUt8AOpjAlY5EH-93" value="&lt;font style=&quot;font-size: 16px;&quot;&gt;&lt;b style=&quot;&quot;&gt;Scenario 1:&lt;/b&gt; Address&amp;nbsp; Wrong / Postal Code Correct&amp;nbsp;&lt;/font&gt;" style="text;html=1;align=left;verticalAlign=middle;resizable=0;points=[];autosize=1;strokeColor=none;fillColor=none;" parent="BnfR5xpUt8AOpjAlY5EH-255" vertex="1">
          <mxGeometry x="20" width="390" height="30" as="geometry" />
        </mxCell>
        <mxCell id="BnfR5xpUt8AOpjAlY5EH-99" style="edgeStyle=orthogonalEdgeStyle;rounded=0;orthogonalLoop=1;jettySize=auto;html=1;entryX=0.5;entryY=1.05;entryDx=0;entryDy=0;entryPerimeter=0;" parent="BnfR5xpUt8AOpjAlY5EH-255" target="BnfR5xpUt8AOpjAlY5EH-68" edge="1">
          <mxGeometry relative="1" as="geometry">
            <mxPoint x="780" y="480" as="sourcePoint" />
          </mxGeometry>
        </mxCell>
        <mxCell id="BnfR5xpUt8AOpjAlY5EH-105" style="edgeStyle=orthogonalEdgeStyle;rounded=0;orthogonalLoop=1;jettySize=auto;html=1;entryX=0.727;entryY=-0.05;entryDx=0;entryDy=0;entryPerimeter=0;" parent="BnfR5xpUt8AOpjAlY5EH-255" source="BnfR5xpUt8AOpjAlY5EH-100" target="BnfR5xpUt8AOpjAlY5EH-104" edge="1">
          <mxGeometry relative="1" as="geometry">
            <mxPoint x="1200" y="440" as="targetPoint" />
          </mxGeometry>
        </mxCell>
        <mxCell id="BnfR5xpUt8AOpjAlY5EH-100" value="Validate" style="ellipse;whiteSpace=wrap;html=1;" parent="BnfR5xpUt8AOpjAlY5EH-255" vertex="1">
          <mxGeometry x="1140" y="330" width="120" height="60" as="geometry" />
        </mxCell>
        <mxCell id="BnfR5xpUt8AOpjAlY5EH-101" style="edgeStyle=orthogonalEdgeStyle;rounded=0;orthogonalLoop=1;jettySize=auto;html=1;entryX=0;entryY=0.5;entryDx=0;entryDy=0;" parent="BnfR5xpUt8AOpjAlY5EH-255" source="BnfR5xpUt8AOpjAlY5EH-68" target="BnfR5xpUt8AOpjAlY5EH-100" edge="1">
          <mxGeometry relative="1" as="geometry" />
        </mxCell>
        <mxCell id="BnfR5xpUt8AOpjAlY5EH-102" value="" style="group;fillColor=#66FF66;container=0;" parent="BnfR5xpUt8AOpjAlY5EH-255" vertex="1" connectable="0">
          <mxGeometry x="1120" y="450" width="160" height="30" as="geometry" />
        </mxCell>
        <mxCell id="BnfR5xpUt8AOpjAlY5EH-106" value="" style="group" parent="BnfR5xpUt8AOpjAlY5EH-255" vertex="1" connectable="0">
          <mxGeometry x="1120" y="450" width="160" height="30" as="geometry" />
        </mxCell>
        <mxCell id="BnfR5xpUt8AOpjAlY5EH-103" value="34738" style="text;html=1;align=center;verticalAlign=middle;resizable=0;points=[];autosize=1;strokeColor=none;fillColor=#66FF66;" parent="BnfR5xpUt8AOpjAlY5EH-106" vertex="1">
          <mxGeometry x="100" width="60" height="30" as="geometry" />
        </mxCell>
        <mxCell id="BnfR5xpUt8AOpjAlY5EH-104" value="ERENKÃ–Y MAH" style="text;html=1;align=center;verticalAlign=middle;resizable=0;points=[];autosize=1;strokeColor=none;fillColor=none;" parent="BnfR5xpUt8AOpjAlY5EH-106" vertex="1">
          <mxGeometry width="110" height="30" as="geometry" />
        </mxCell>
        <mxCell id="BnfR5xpUt8AOpjAlY5EH-107" value="Check Postal Code" style="ellipse;whiteSpace=wrap;html=1;" parent="BnfR5xpUt8AOpjAlY5EH-255" vertex="1">
          <mxGeometry x="660" y="450" width="120" height="60" as="geometry" />
        </mxCell>
        <mxCell id="2tGlPsbqraXx1kuYb640-10" value="Turkiye Postal Code DB" style="shape=cylinder3;whiteSpace=wrap;html=1;boundedLbl=1;backgroundOutline=1;size=15;fillColor=#f8cecc;strokeColor=#b85450;" vertex="1" parent="BnfR5xpUt8AOpjAlY5EH-255">
          <mxGeometry x="1161" y="180" width="80" height="90" as="geometry" />
        </mxCell>
        <mxCell id="2tGlPsbqraXx1kuYb640-11" value="&lt;span style=&quot;text-align: left;&quot;&gt;34738&amp;nbsp; &amp;nbsp; &amp;nbsp; &amp;nbsp; &amp;nbsp; &amp;nbsp; &amp;nbsp; -&amp;gt; ERENKÃ–Y MAH&lt;/span&gt;&lt;div style=&quot;text-align: left; text-wrap-mode: nowrap;&quot;&gt;&lt;span style=&quot;text-wrap-mode: wrap;&quot;&gt;Output Adress -&amp;gt; ERENKÃ–Y MAH&lt;/span&gt;&lt;/div&gt;" style="text;html=1;align=center;verticalAlign=middle;whiteSpace=wrap;rounded=0;" vertex="1" parent="BnfR5xpUt8AOpjAlY5EH-255">
          <mxGeometry x="1109" y="143" width="195" height="30" as="geometry" />
        </mxCell>
        <mxCell id="2tGlPsbqraXx1kuYb640-12" value="" style="endArrow=none;html=1;rounded=0;exitX=1;exitY=0.75;exitDx=0;exitDy=0;" edge="1" parent="BnfR5xpUt8AOpjAlY5EH-255" source="2tGlPsbqraXx1kuYb640-11">
          <mxGeometry width="50" height="50" relative="1" as="geometry">
            <mxPoint x="1340" y="173" as="sourcePoint" />
            <mxPoint x="1321" y="158" as="targetPoint" />
          </mxGeometry>
        </mxCell>
        <mxCell id="2tGlPsbqraXx1kuYb640-13" value="" style="endArrow=none;html=1;rounded=0;exitX=1;exitY=0.25;exitDx=0;exitDy=0;" edge="1" parent="BnfR5xpUt8AOpjAlY5EH-255" source="2tGlPsbqraXx1kuYb640-11">
          <mxGeometry width="50" height="50" relative="1" as="geometry">
            <mxPoint x="1314" y="176" as="sourcePoint" />
            <mxPoint x="1320" y="158" as="targetPoint" />
          </mxGeometry>
        </mxCell>
        <mxCell id="2tGlPsbqraXx1kuYb640-14" value="matched!" style="text;html=1;align=center;verticalAlign=middle;whiteSpace=wrap;rounded=0;" vertex="1" parent="BnfR5xpUt8AOpjAlY5EH-255">
          <mxGeometry x="1322" y="143" width="60" height="30" as="geometry" />
        </mxCell>
        <mxCell id="2tGlPsbqraXx1kuYb640-15" style="edgeStyle=orthogonalEdgeStyle;rounded=0;orthogonalLoop=1;jettySize=auto;html=1;entryX=0;entryY=0.5;entryDx=0;entryDy=0;entryPerimeter=0;" edge="1" parent="BnfR5xpUt8AOpjAlY5EH-255" source="BnfR5xpUt8AOpjAlY5EH-68" target="2tGlPsbqraXx1kuYb640-10">
          <mxGeometry relative="1" as="geometry">
            <Array as="points">
              <mxPoint x="1069" y="225" />
            </Array>
          </mxGeometry>
        </mxCell>
        <mxCell id="2tGlPsbqraXx1kuYb640-2" value="Turkiye Postal Code DB" style="shape=cylinder3;whiteSpace=wrap;html=1;boundedLbl=1;backgroundOutline=1;size=15;fillColor=#f8cecc;strokeColor=#b85450;" vertex="1" parent="1">
          <mxGeometry x="964" y="1595" width="80" height="90" as="geometry" />
        </mxCell>
        <mxCell id="2tGlPsbqraXx1kuYb640-3" style="edgeStyle=orthogonalEdgeStyle;rounded=0;orthogonalLoop=1;jettySize=auto;html=1;entryX=0;entryY=0.5;entryDx=0;entryDy=0;entryPerimeter=0;" edge="1" parent="1" source="BnfR5xpUt8AOpjAlY5EH-178" target="2tGlPsbqraXx1kuYb640-2">
          <mxGeometry relative="1" as="geometry">
            <Array as="points">
              <mxPoint x="867" y="1640" />
            </Array>
          </mxGeometry>
        </mxCell>
        <mxCell id="2tGlPsbqraXx1kuYb640-4" value="&lt;span style=&quot;font-size: 8px;&quot;&gt;Validate &lt;b&gt;&quot;PK&quot;&lt;/b&gt;&lt;/span&gt;" style="text;html=1;align=center;verticalAlign=middle;whiteSpace=wrap;rounded=0;" vertex="1" parent="1">
          <mxGeometry x="860" y="1610" width="100" height="30" as="geometry" />
        </mxCell>
        <mxCell id="2tGlPsbqraXx1kuYb640-6" value="&lt;span style=&quot;text-align: left;&quot;&gt;34738&amp;nbsp; &amp;nbsp; &amp;nbsp; &amp;nbsp; &amp;nbsp; &amp;nbsp; &amp;nbsp; -&amp;gt; ERENKÃ–Y MAH&lt;/span&gt;&lt;div style=&quot;text-align: left; text-wrap-mode: nowrap;&quot;&gt;&lt;span style=&quot;text-wrap-mode: wrap;&quot;&gt;Output Adress -&amp;gt; ERENKÃ–Y MAH&lt;/span&gt;&lt;/div&gt;" style="text;html=1;align=center;verticalAlign=middle;whiteSpace=wrap;rounded=0;" vertex="1" parent="1">
          <mxGeometry x="912" y="1558" width="195" height="30" as="geometry" />
        </mxCell>
        <mxCell id="2tGlPsbqraXx1kuYb640-7" value="" style="endArrow=none;html=1;rounded=0;exitX=1;exitY=0.75;exitDx=0;exitDy=0;" edge="1" parent="1" source="2tGlPsbqraXx1kuYb640-6">
          <mxGeometry width="50" height="50" relative="1" as="geometry">
            <mxPoint x="1143" y="1588" as="sourcePoint" />
            <mxPoint x="1124" y="1573" as="targetPoint" />
          </mxGeometry>
        </mxCell>
        <mxCell id="2tGlPsbqraXx1kuYb640-8" value="" style="endArrow=none;html=1;rounded=0;exitX=1;exitY=0.25;exitDx=0;exitDy=0;" edge="1" parent="1" source="2tGlPsbqraXx1kuYb640-6">
          <mxGeometry width="50" height="50" relative="1" as="geometry">
            <mxPoint x="1117" y="1591" as="sourcePoint" />
            <mxPoint x="1123" y="1573" as="targetPoint" />
          </mxGeometry>
        </mxCell>
        <mxCell id="2tGlPsbqraXx1kuYb640-9" value="matched!" style="text;html=1;align=center;verticalAlign=middle;whiteSpace=wrap;rounded=0;" vertex="1" parent="1">
          <mxGeometry x="1125" y="1558" width="60" height="30" as="geometry" />
        </mxCell>
        <mxCell id="2tGlPsbqraXx1kuYb640-16" value="Turkiye Postal Code DB" style="shape=cylinder3;whiteSpace=wrap;html=1;boundedLbl=1;backgroundOutline=1;size=15;fillColor=#f8cecc;strokeColor=#b85450;" vertex="1" parent="1">
          <mxGeometry x="616" y="426" width="80" height="90" as="geometry" />
        </mxCell>
        <mxCell id="2tGlPsbqraXx1kuYb640-17" value="&lt;font style=&quot;font-size: 15px;&quot;&gt;Nedir bu Postal Code Database&#39;i??&lt;/font&gt;" style="text;html=1;align=left;verticalAlign=middle;whiteSpace=wrap;rounded=0;" vertex="1" parent="1">
          <mxGeometry x="701" y="437" width="248" height="30" as="geometry" />
        </mxCell>
        <mxCell id="2tGlPsbqraXx1kuYb640-18" value="&lt;b&gt;il, ilÃ§e, semt_bucak_belde, Mahalle, PK, Latitude, Longitude, Destination Facility&lt;/b&gt;" style="text;html=1;align=center;verticalAlign=middle;whiteSpace=wrap;rounded=0;" vertex="1" parent="1">
          <mxGeometry x="592" y="564" width="466" height="30" as="geometry" />
        </mxCell>
        <mxCell id="2tGlPsbqraXx1kuYb640-19" value="&lt;b&gt;kolonlar:&lt;/b&gt;" style="text;html=1;align=center;verticalAlign=middle;whiteSpace=wrap;rounded=0;" vertex="1" parent="1">
          <mxGeometry x="526" y="564" width="69" height="30" as="geometry" />
        </mxCell>
        <mxCell id="2tGlPsbqraXx1kuYb640-20" value="Ä°STANBUL, KADIKÃ–Y, ERENKÃ–Y, ERENKÃ–Y MAH, 34738,&amp;nbsp;40.97, 29.07, EAT" style="text;html=1;align=center;verticalAlign=middle;whiteSpace=wrap;rounded=0;fontStyle=0" vertex="1" parent="1">
          <mxGeometry x="577" y="589" width="466" height="30" as="geometry" />
        </mxCell>
        <mxCell id="2tGlPsbqraXx1kuYb640-21" value="Ã¶rnek satÄ±r:" style="text;html=1;align=center;verticalAlign=middle;whiteSpace=wrap;rounded=0;fontStyle=0" vertex="1" parent="1">
          <mxGeometry x="521" y="589" width="69" height="30" as="geometry" />
        </mxCell>
        <mxCell id="2tGlPsbqraXx1kuYb640-22" value="&lt;span style=&quot;font-size: 15px;&quot;&gt;Bu database aslÄ±nda 3 veri kaynaÄŸÄ±nÄ±n birleÅŸiminden oluÅŸmuÅŸtur:&lt;/span&gt;&lt;div&gt;&lt;span style=&quot;font-size: 15px;&quot;&gt;- Posta Kodu Verisi (PTT)&lt;/span&gt;&lt;/div&gt;&lt;div&gt;&lt;span style=&quot;font-size: 15px;&quot;&gt;- Enlem Boylam Verisi (&lt;/span&gt;&lt;span style=&quot;background-color: transparent; font-size: 15px;&quot;&gt;geopy.geocoders&lt;/span&gt;&lt;span style=&quot;font-size: 15px; background-color: transparent; color: light-dark(rgb(0, 0, 0), rgb(255, 255, 255));&quot;&gt;)&lt;/span&gt;&lt;/div&gt;&lt;div&gt;&lt;span style=&quot;font-size: 15px; background-color: transparent; color: light-dark(rgb(0, 0, 0), rgb(255, 255, 255));&quot;&gt;- Destination Facility Verisi(daha bulamadÄ±m :( )&lt;/span&gt;&lt;/div&gt;" style="text;html=1;align=left;verticalAlign=middle;whiteSpace=wrap;rounded=0;" vertex="1" parent="1">
          <mxGeometry x="699.5" y="486" width="445" height="30" as="geometry" />
        </mxCell>
        <mxCell id="2tGlPsbqraXx1kuYb640-23" value="" style="swimlane;startSize=0;" vertex="1" parent="1">
          <mxGeometry x="498" y="401" width="677" height="281" as="geometry" />
        </mxCell>
        <mxCell id="2tGlPsbqraXx1kuYb640-24" value="" style="swimlane;startSize=0;" vertex="1" parent="1">
          <mxGeometry x="-237" y="401" width="677" height="280" as="geometry" />
        </mxCell>
      </root>
    </mxGraphModel>
  </diagram>
</mxfile>
